<?xml version="1.0" encoding="UTF-8" standalone="no"?>
<!DOCTYPE svg PUBLIC "-//W3C//DTD SVG 1.1//EN" "http://www.w3.org/Graphics/SVG/1.1/DTD/svg11.dtd">
<svg version="1.1" xmlns="http://www.w3.org/2000/svg" xmlns:xlink="http://www.w3.org/1999/xlink" preserveAspectRatio="xMidYMid meet" viewBox="37.46757740983412 20.999999999999886 554.0000000000002 554.0000000000002" width="550" height="550"><defs><path d="M336.01 22.91L347.1 24.04L358.05 25.6L368.86 27.59L379.52 30L390.02 32.81L400.35 36.03L410.5 39.64L420.47 43.63L430.24 47.99L439.8 52.71L449.15 57.8L458.28 63.23L467.18 68.99L475.84 75.09L484.24 81.5L492.39 88.23L500.28 95.26L507.88 102.58L515.21 110.19L522.24 118.07L528.96 126.22L535.38 134.63L541.48 143.29L547.24 152.19L552.67 161.32L557.75 170.67L562.48 180.23L566.84 190L570.83 199.97L574.44 210.12L577.65 220.45L580.47 230.95L582.88 241.61L584.87 252.42L586.43 263.37L587.56 274.46L588.24 285.67L588.47 297L588.24 308.33L587.56 319.54L586.43 330.63L584.87 341.58L582.88 352.39L580.47 363.05L577.65 373.55L574.44 383.88L570.83 394.03L566.84 404L562.48 413.77L557.75 423.33L552.67 432.68L547.24 441.81L541.48 450.71L535.38 459.37L528.96 467.78L522.24 475.93L515.21 483.81L507.88 491.42L500.28 498.74L492.39 505.77L484.24 512.5L475.84 518.91L467.18 525.01L458.28 530.77L449.15 536.2L439.8 541.29L430.24 546.01L420.47 550.37L410.5 554.36L400.35 557.97L390.02 561.19L379.52 564L368.86 566.41L358.05 568.4L347.1 569.96L336.01 571.09L324.8 571.77L313.47 572L302.14 571.77L290.93 571.09L279.84 569.96L268.89 568.4L258.07 566.41L247.41 564L236.92 561.19L226.59 557.97L216.43 554.36L206.47 550.37L196.7 546.01L187.13 541.29L177.78 536.2L168.65 530.77L159.76 525.01L151.1 518.91L142.69 512.5L134.54 505.77L126.66 498.74L119.05 491.42L111.73 483.81L104.7 475.93L97.97 467.78L91.56 459.37L85.46 450.71L79.69 441.81L74.26 432.68L69.18 423.33L64.46 413.77L60.09 404L56.1 394.03L52.5 383.88L49.28 373.55L46.47 363.05L44.06 352.39L42.07 341.58L40.51 330.63L39.38 319.54L38.7 308.33L38.47 297L38.7 285.67L39.38 274.46L40.51 263.37L42.07 252.42L44.06 241.61L46.47 230.95L49.28 220.45L52.5 210.12L56.1 199.97L60.09 190L64.46 180.23L69.18 170.67L74.26 161.32L79.69 152.19L85.46 143.29L91.56 134.63L97.97 126.22L104.7 118.07L111.73 110.19L119.05 102.58L126.66 95.26L134.54 88.23L142.69 81.5L151.1 75.09L159.76 68.99L168.65 63.23L177.78 57.8L187.13 52.71L196.7 47.99L206.47 43.63L216.43 39.64L226.59 36.03L236.92 32.81L247.41 30L258.07 27.59L268.89 25.6L279.84 24.04L290.93 22.91L302.14 22.23L313.47 22L324.8 22.23L336.01 22.91ZM363.1 320.83L362.9 322.91L362.68 324.99L362.45 327.06L362.21 329.14L361.95 331.21L361.68 333.28L361.4 335.35L361.1 337.42L360.79 339.48L360.47 341.54L360.13 343.6L359.78 345.66L359.42 347.71L359.04 349.76L358.65 351.81L358.25 353.86L357.83 355.9L357.4 357.95L356.95 359.98L356.5 362.02L356.03 364.05L355.54 366.08L355.05 368.11L354.54 370.13L354.01 372.15L353.48 374.17L352.93 376.18L352.36 378.19L351.79 380.19L351.2 382.2L350.6 384.19L349.98 386.19L349.35 388.18L348.71 390.17L348.06 392.15L347.39 394.13L346.71 396.11L346.02 398.08L345.31 400.05L331.89 437.03L328.16 358.81L328.21 358.8L328.47 358.7L328.72 358.59L328.97 358.47L329.21 358.35L329.44 358.21L329.67 358.07L329.9 357.91L330.11 357.75L330.32 357.57L330.53 357.39L330.72 357.2L330.91 357.01L331.09 356.8L331.26 356.59L331.42 356.37L331.58 356.14L331.72 355.91L331.86 355.67L331.98 355.42L332.1 355.17L332.2 354.91L332.3 354.64L332.38 354.37L332.45 354.1L332.52 353.82L338.73 322.2L338.77 321.94L338.8 321.69L338.81 321.45L338.81 321.2L338.8 320.96L338.77 320.72L338.73 320.48L338.68 320.25L338.62 320.02L338.54 319.79L338.46 319.57L338.36 319.36L338.25 319.15L338.13 318.95L338 318.76L337.86 318.57L337.72 318.39L337.56 318.22L337.39 318.05L337.22 317.9L337.03 317.75L336.84 317.61L336.65 317.49L336.44 317.37L336.23 317.26L336.01 317.17L335.78 317.08L335.55 317.01L335.32 316.95L335.08 316.9L334.83 316.87L334.58 316.85L334.32 316.84L292.61 316.84L292.36 316.85L292.11 316.87L291.86 316.9L291.62 316.95L291.38 317.01L291.15 317.08L290.93 317.17L290.71 317.26L290.5 317.37L290.29 317.49L290.09 317.61L289.9 317.75L289.72 317.9L289.54 318.05L289.38 318.22L289.22 318.39L289.07 318.57L288.93 318.76L288.8 318.95L288.68 319.15L288.58 319.36L288.48 319.57L288.39 319.79L288.32 320.02L288.25 320.25L288.2 320.48L288.16 320.72L288.14 320.96L288.12 321.2L288.12 321.45L288.14 321.69L288.16 321.94L288.21 322.2L294.42 353.82L294.48 354.1L294.55 354.37L294.64 354.64L294.73 354.91L294.84 355.17L294.95 355.42L295.08 355.67L295.21 355.91L295.36 356.14L295.51 356.37L295.67 356.59L295.85 356.8L296.03 357.01L296.21 357.2L296.41 357.39L296.61 357.57L296.82 357.75L297.04 357.91L297.26 358.07L297.49 358.21L297.73 358.35L297.97 358.47L298.22 358.59L298.47 358.7L298.73 358.8L298.77 358.81L295.05 437.03L281.63 400.05L280.92 398.08L280.22 396.11L279.54 394.13L278.88 392.15L278.22 390.17L277.58 388.18L276.95 386.19L276.34 384.19L275.74 382.2L275.15 380.19L274.57 378.19L274.01 376.18L273.46 374.17L272.92 372.15L272.4 370.13L271.89 368.11L271.39 366.08L270.91 364.05L270.44 362.02L269.98 359.98L269.54 357.95L269.11 355.9L268.69 353.86L268.29 351.81L267.89 349.76L267.52 347.71L267.15 345.66L266.8 343.6L266.47 341.54L266.14 339.48L265.83 337.42L265.54 335.35L265.25 333.28L264.98 331.21L264.73 329.14L264.48 327.06L264.25 324.99L264.04 322.91L263.83 320.83L263.65 318.75L261.69 296.42L169.58 329.28L168.1 329.83L166.64 330.42L165.2 331.04L163.78 331.7L162.38 332.39L161.01 333.12L159.66 333.89L158.33 334.68L157.02 335.51L155.74 336.38L154.49 337.27L153.26 338.19L152.05 339.15L150.87 340.13L149.72 341.15L148.6 342.19L147.5 343.26L146.44 344.36L145.4 345.48L144.39 346.63L143.41 347.81L142.46 349.01L141.54 350.24L140.66 351.48L139.8 352.76L138.98 354.05L138.19 355.37L137.44 356.71L136.71 358.07L136.03 359.45L135.38 360.85L134.76 362.27L134.18 363.7L133.64 365.16L133.13 366.63L132.66 368.12L132.23 369.62L131.84 371.14L131.49 372.68L131.18 374.22L117.05 449.29L509.89 449.29L495.76 374.22L495.45 372.68L495.09 371.14L494.7 369.62L494.27 368.12L493.8 366.63L493.3 365.16L492.75 363.7L492.17 362.27L491.56 360.85L490.91 359.45L490.22 358.07L489.5 356.71L488.74 355.37L487.96 354.05L487.13 352.76L486.28 351.48L485.39 350.24L484.48 349.01L483.53 347.81L482.55 346.63L481.54 345.48L480.5 344.36L479.43 343.26L478.34 342.19L477.21 341.15L476.06 340.13L474.88 339.15L473.68 338.19L472.45 337.27L471.19 336.38L469.91 335.51L468.61 334.68L467.28 333.89L465.93 333.12L464.55 332.39L463.15 331.7L461.74 331.04L460.3 330.42L458.83 329.83L457.35 329.28L365.24 296.42L363.29 318.75L363.1 320.83ZM243.12 172.99L242.63 176.36L242.6 176.65L242.34 176.6L241.87 176.54L241.4 176.5L240.95 176.48L240.52 176.49L240.09 176.53L239.69 176.6L239.29 176.69L238.91 176.8L238.54 176.95L238.19 177.12L237.85 177.31L237.52 177.53L237.21 177.78L236.93 178.04L236.67 178.32L236.43 178.62L236.2 178.94L236 179.29L235.81 179.66L235.63 180.04L235.47 180.45L235.32 180.87L235.19 181.32L235.06 181.78L234.95 182.26L234.85 182.76L234.76 183.28L234.67 183.81L234.6 184.37L234.53 184.93L234.47 185.51L234.42 186.11L234.37 186.72L234.32 187.35L234.28 187.99L234.24 188.64L234.2 189.31L234.16 189.98L234.12 190.67L234.09 191.38L234.05 192.09L233.97 194.34L233.97 196.63L234.05 198.96L234.21 201.31L234.44 203.68L234.74 206.05L235.09 208.43L235.51 210.79L235.97 213.13L236.48 215.43L237.04 217.7L237.63 219.91L238.26 222.07L238.91 224.15L239.59 226.16L240.29 228.08L241 229.89L241.72 231.6L242.45 233.2L243.18 234.66L243.91 235.99L244.62 237.17L245.33 238.2L246.01 239.06L246.68 239.75L247.31 240.25L247.92 240.56L248.49 240.66L249.01 240.62L249.03 240.61L249.58 242.28L250.81 245.67L252.12 248.99L253.53 252.25L255.01 255.42L256.59 258.52L258.25 261.53L260 264.45L261.83 267.27L263.75 270L265.76 272.62L267.85 275.13L270.03 277.53L272.29 279.8L274.64 281.96L277.08 283.98L279.6 285.87L282.2 287.62L284.89 289.23L287.66 290.68L290.52 291.99L293.47 293.13L296.5 294.12L299.61 294.93L302.8 295.58L306.08 296.04L309.45 296.32L312.9 296.42L316.34 296.31L319.71 295.97L322.99 295.43L326.19 294.68L329.3 293.73L332.33 292.59L335.27 291.26L338.13 289.76L340.9 288.08L343.59 286.25L346.2 284.25L348.72 282.11L351.15 279.82L353.5 277.4L355.76 274.85L357.94 272.18L360.03 269.39L362.04 266.5L363.96 263.51L365.8 260.42L367.54 257.25L369.2 254L370.78 250.67L372.27 247.28L373.67 243.84L374.9 240.56L375.11 240.62L375.63 240.66L376.2 240.56L376.8 240.25L377.44 239.75L378.1 239.06L378.79 238.2L379.49 237.17L380.21 235.99L380.93 234.66L381.66 233.2L382.39 231.6L383.11 229.89L383.83 228.08L384.52 226.16L385.2 224.15L385.86 222.07L386.48 219.91L387.08 217.7L387.63 215.43L388.14 213.13L388.61 210.79L389.02 208.43L389.38 206.05L389.67 203.68L389.9 201.31L390.06 198.96L390.14 196.63L390.15 194.34L390.07 192.09L390.03 191.38L389.99 190.67L389.95 189.98L389.92 189.31L389.88 188.64L389.84 187.99L389.79 187.35L389.75 186.72L389.7 186.11L389.64 185.51L389.58 184.93L389.51 184.37L389.44 183.81L389.36 183.28L389.26 182.76L389.16 182.26L389.05 181.78L388.93 181.32L388.79 180.87L388.65 180.45L388.48 180.04L388.31 179.66L388.12 179.29L387.91 178.94L387.69 178.62L387.45 178.32L387.19 178.04L386.91 177.78L386.59 177.53L386.27 177.31L385.93 177.12L385.57 176.95L385.21 176.8L384.82 176.69L384.43 176.6L384.02 176.53L383.6 176.49L383.53 176.49L383.16 173.5L382.67 170.39L382.31 168.49L373.24 171.55L370.17 172.56L367.08 173.52L363.98 174.42L360.87 175.26L357.75 176.05L354.62 176.79L351.49 177.47L348.34 178.09L345.19 178.67L342.03 179.18L338.86 179.64L335.69 180.05L332.51 180.4L329.33 180.7L326.14 180.95L322.96 181.14L319.77 181.27L316.58 181.35L313.39 181.37L310.2 181.35L307.01 181.26L303.82 181.12L300.63 180.93L297.45 180.68L294.27 180.38L291.1 180.02L287.93 179.61L284.77 179.15L281.61 178.63L278.47 178.05L275.33 177.42L272.19 176.74L269.07 176L265.96 175.21L262.86 174.37L259.77 173.47L256.69 172.51L253.63 171.5L250.58 170.44L247.54 169.32L244.06 168L243.7 169.7L243.12 172.99ZM311.01 60.6L309.96 60.64L308.92 60.7L307.87 60.77L306.82 60.86L305.78 60.96L304.73 61.08L303.69 61.21L302.65 61.36L301.61 61.52L300.57 61.7L299.53 61.89L298.5 62.09L297.47 62.31L296.44 62.55L295.42 62.8L294.39 63.07L293.93 63.19L298.97 107.4L298.97 107.41L298.97 107.42L298.97 107.44L298.97 107.45L298.96 107.46L298.96 107.47L298.96 107.48L298.95 107.49L298.95 107.5L298.94 107.51L298.93 107.52L298.93 107.52L298.92 107.53L298.91 107.54L298.9 107.55L298.89 107.55L298.88 107.56L298.87 107.56L298.86 107.57L298.85 107.57L297.45 107.89L288.82 64.74L281.41 67.06L280.73 67.28L280.05 67.51L279.37 67.75L278.69 68L278.02 68.26L277.36 68.52L276.7 68.8L276.04 69.08L275.39 69.38L274.74 69.68L274.1 70L273.46 70.32L272.82 70.65L272.19 70.99L271.57 71.34L270.95 71.69L270.34 72.06L269.73 72.43L269.13 72.81L268.53 73.2L267.94 73.6L267.35 74.01L266.77 74.43L266.2 74.85L265.63 75.28L265.07 75.72L264.51 76.17L263.96 76.63L263.42 77.09L262.88 77.57L262.35 78.05L261.82 78.53L261.31 79.03L260.8 79.53L260.29 80.04L259.79 80.56L259.3 81.08L258.82 81.62L258.34 82.16L257.88 82.7L252.72 88.81L252.29 89.33L251.86 89.86L251.44 90.39L251.03 90.93L250.63 91.47L250.23 92.02L249.84 92.57L249.46 93.13L249.09 93.69L248.73 94.26L248.37 94.83L248.02 95.41L247.68 95.99L247.35 96.58L247.03 97.17L246.71 97.76L246.4 98.36L246.1 98.96L245.81 99.57L245.53 100.18L245.25 100.8L244.99 101.41L244.73 102.04L244.48 102.66L244.24 103.29L244.01 103.92L243.78 104.56L243.57 105.2L243.36 105.84L243.16 106.48L242.98 107.13L242.8 107.78L242.62 108.43L242.46 109.09L242.31 109.75L242.16 110.41L242.03 111.07L241.9 111.74L241.78 112.41L241.68 113.08L237.68 138.93L237.67 138.98L237.66 139.03L237.65 139.07L237.64 139.12L237.63 139.17L237.61 139.21L237.6 139.25L237.58 139.3L237.56 139.34L237.54 139.38L237.52 139.43L237.5 139.47L237.47 139.51L237.45 139.55L237.42 139.58L237.39 139.62L237.37 139.66L237.34 139.7L237.31 139.73L237.28 139.76L237.24 139.8L237.21 139.83L237.18 139.86L237.14 139.89L237.1 139.92L237.07 139.95L237.03 139.98L236.99 140L236.95 140.03L236.91 140.05L236.87 140.07L236.83 140.1L236.79 140.12L236.74 140.13L236.7 140.15L236.65 140.17L236.61 140.18L236.56 140.2L236.52 140.21L236.47 140.22L233.86 140.79L233.73 140.82L233.6 140.86L233.48 140.9L233.36 140.94L233.24 140.99L233.12 141.04L233 141.1L232.89 141.16L232.78 141.22L232.68 141.29L232.57 141.36L232.47 141.43L232.37 141.51L232.28 141.59L232.19 141.68L232.1 141.77L232.01 141.86L231.93 141.95L231.85 142.05L231.78 142.15L231.71 142.25L231.64 142.35L231.57 142.46L231.51 142.57L231.46 142.68L231.4 142.79L231.36 142.91L231.31 143.03L231.27 143.15L231.24 143.27L231.2 143.39L231.18 143.51L231.15 143.64L231.14 143.76L231.12 143.89L231.11 144.02L231.11 144.15L231.11 144.28L231.11 144.41L231.12 144.54L232.48 158.48L232.5 158.58L232.51 158.68L232.53 158.77L232.55 158.87L232.58 158.96L232.61 159.05L232.64 159.14L232.67 159.23L232.71 159.31L232.75 159.4L232.8 159.48L232.84 159.56L232.89 159.64L232.95 159.72L233 159.79L233.06 159.87L233.12 159.94L233.18 160L233.25 160.07L233.31 160.13L233.38 160.19L233.46 160.25L233.53 160.31L233.61 160.36L233.68 160.41L233.76 160.46L233.85 160.5L233.93 160.55L234.01 160.59L234.1 160.62L234.19 160.65L234.28 160.68L234.37 160.71L234.46 160.73L234.55 160.75L234.65 160.77L234.74 160.78L234.84 160.79L234.94 160.8L235.04 160.8L242.68 160.8L249.84 163.51L252.77 164.59L255.72 165.61L258.67 166.59L261.64 167.51L264.62 168.38L267.62 169.19L270.62 169.96L273.63 170.67L276.66 171.33L279.69 171.94L282.73 172.49L285.77 172.99L288.82 173.44L291.88 173.84L294.94 174.18L298.01 174.47L301.08 174.71L304.16 174.9L307.23 175.03L310.31 175.11L313.39 175.14L316.47 175.12L319.55 175.04L322.63 174.91L325.7 174.73L328.77 174.49L331.84 174.21L334.91 173.86L337.97 173.47L341.03 173.03L344.08 172.53L347.12 171.98L350.16 171.37L353.19 170.71L356.21 170L359.22 169.24L362.22 168.43L365.21 167.56L368.19 166.64L371.15 165.66L382.46 161.84L391.74 161.07L391.88 161.06L392.02 161.04L392.16 161.01L392.3 160.98L392.43 160.95L392.57 160.91L392.7 160.87L392.83 160.82L392.95 160.77L393.08 160.71L393.2 160.65L393.32 160.59L393.43 160.52L393.54 160.44L393.66 160.37L393.76 160.29L393.87 160.2L393.97 160.11L394.07 160.02L394.16 159.93L394.25 159.83L394.34 159.73L394.43 159.63L394.51 159.52L394.58 159.41L394.66 159.3L394.73 159.18L394.79 159.06L394.85 158.94L394.91 158.82L394.96 158.69L395.01 158.57L395.06 158.44L395.1 158.3L395.13 158.17L395.16 158.03L395.19 157.9L395.21 157.76L395.22 157.62L395.23 157.48L395.82 146.03L395.83 145.87L395.83 145.71L395.82 145.56L395.81 145.4L395.8 145.25L395.78 145.09L395.76 144.94L395.73 144.79L395.69 144.64L395.66 144.49L395.62 144.34L395.57 144.2L395.52 144.06L395.46 143.91L395.4 143.77L395.34 143.64L395.27 143.5L395.2 143.37L395.12 143.24L395.04 143.11L394.96 142.98L394.87 142.86L394.78 142.74L394.69 142.62L394.59 142.51L394.48 142.39L394.38 142.28L394.27 142.18L394.16 142.08L394.04 141.98L393.92 141.88L393.8 141.79L393.67 141.7L393.54 141.62L393.41 141.53L393.28 141.46L393.14 141.38L393 141.32L392.85 141.25L392.71 141.19L390.65 140.37L390.6 140.36L390.56 140.34L390.52 140.32L390.47 140.29L390.43 140.27L390.39 140.25L390.35 140.22L390.31 140.2L390.27 140.17L390.23 140.14L390.19 140.12L390.16 140.09L390.12 140.06L390.08 140.03L390.05 139.99L390.02 139.96L389.98 139.93L389.95 139.89L389.92 139.86L389.89 139.82L389.86 139.78L389.83 139.75L389.8 139.71L389.78 139.67L389.75 139.63L389.73 139.59L389.71 139.55L389.68 139.51L389.66 139.47L389.64 139.42L389.62 139.38L389.6 139.34L389.59 139.29L389.57 139.25L389.56 139.2L389.54 139.16L389.53 139.11L389.52 139.06L389.51 139.02L389.5 138.97L385.44 116.15L385.29 115.33L385.13 114.51L384.95 113.69L384.77 112.88L384.58 112.07L384.37 111.26L384.16 110.46L383.93 109.66L383.69 108.86L383.45 108.07L383.19 107.28L382.92 106.49L382.64 105.71L382.35 104.94L382.06 104.16L381.75 103.39L381.43 102.63L381.1 101.87L380.76 101.11L380.41 100.36L380.05 99.61L379.69 98.87L379.31 98.13L378.92 97.4L378.52 96.67L378.11 95.95L377.7 95.23L377.27 94.52L376.84 93.81L376.39 93.11L375.93 92.42L375.47 91.73L375 91.05L374.51 90.37L374.02 89.7L373.52 89.03L373.01 88.37L372.49 87.72L371.96 87.07L371.42 86.44L365.9 79.95L365.47 79.45L365.03 78.96L364.58 78.48L364.13 78L363.67 77.53L363.21 77.07L362.73 76.61L362.25 76.16L361.77 75.72L361.28 75.29L360.78 74.86L360.28 74.45L359.77 74.04L359.25 73.64L358.73 73.24L358.2 72.86L357.67 72.48L357.13 72.11L356.59 71.75L356.04 71.39L355.48 71.05L354.93 70.71L354.36 70.38L353.79 70.06L353.22 69.75L352.64 69.45L352.06 69.16L351.47 68.87L350.87 68.59L350.28 68.33L349.68 68.07L349.07 67.82L348.46 67.58L347.85 67.34L347.23 67.12L346.61 66.91L345.98 66.7L345.35 66.51L344.72 66.32L344.09 66.14L333.64 63.32L333.64 63.34L333.63 63.47L333.61 63.6L324.75 107.89L323.35 107.57L323.34 107.57L323.33 107.56L323.32 107.56L323.31 107.55L323.3 107.55L323.29 107.54L323.28 107.53L323.27 107.52L323.27 107.52L323.26 107.51L323.25 107.5L323.25 107.49L323.24 107.48L323.24 107.47L323.24 107.46L323.23 107.45L323.23 107.44L323.23 107.42L323.23 107.41L323.23 107.4L328.39 62.15L328.41 62.06L327.75 61.93L326.71 61.73L325.67 61.55L324.63 61.39L323.59 61.24L322.55 61.1L321.5 60.98L320.45 60.88L319.41 60.79L318.36 60.71L317.31 60.65L316.26 60.61L315.21 60.57L314.16 60.56L313.11 60.56L312.06 60.57L311.01 60.6Z" id="g4SmLRsef5"></path></defs><g><g><use xlink:href="#g4SmLRsef5" opacity="1" fill="#ffffff" fill-opacity="1"></use></g></g></svg>